<svg width="100" height="91" viewBox="0 0 100 91" fill="none" xmlns="http://www.w3.org/2000/svg">
<path d="M49.6011 3L9 27.2751V90.9718H90.2047V27.2751L49.6011 3Z" fill="#999999"/>
<path d="M90.341 27.3035L49.7373 3.02832L9.13623 27.3035V58.7758C20.8382 54.6794 33.5759 39.3542 44.6814 37.7493C58.0207 35.8204 67.7924 56.4217 80.9538 58.5658C84.2363 59.0999 87.4168 58.9314 90.3436 58.3766V27.3035H90.341Z" fill="#D6D8D6"/>
<path d="M97.2981 34.5058L49.7371 6.05647L2.70185 34.1791L0 29.7405L49.7398 0L100 30.0646L97.2981 34.5058Z" fill="#999999"/>
<path d="M52.1958 35.5171H16.6846V60.9408H52.1958V35.5171Z" fill="white"/>
<path d="M16.6846 48.229H52.1984" stroke="#999999" stroke-width="5" stroke-miterlimit="10"/>
<path d="M34.4414 35.5171V60.9408" stroke="#999999" stroke-width="5" stroke-miterlimit="10"/>
<path d="M12.48 70.612H14.064L15.732 76.54L17.376 70.612H18.552L20.196 76.54L21.864 70.612H23.448L21.06 79H19.644L17.964 73.168L16.284 79H14.868L12.48 70.612ZM25.8593 79.18C25.1713 79.18 24.6073 79 24.1673 78.64C23.7273 78.272 23.5073 77.78 23.5073 77.164C23.5073 76.524 23.7153 76.024 24.1313 75.664C24.5473 75.304 25.1313 75.124 25.8833 75.124C26.6113 75.124 27.2393 75.272 27.7673 75.568V75.412C27.7673 75.004 27.6393 74.708 27.3833 74.524C27.1353 74.34 26.7313 74.248 26.1713 74.248C25.8193 74.248 25.4713 74.284 25.1273 74.356C24.7833 74.42 24.4793 74.512 24.2153 74.632V73.444C24.4553 73.332 24.7753 73.24 25.1753 73.168C25.5833 73.096 25.9753 73.06 26.3513 73.06C27.3513 73.06 28.0913 73.276 28.5713 73.708C29.0513 74.132 29.2913 74.724 29.2913 75.484V79H27.8633V78.436C27.6153 78.676 27.3313 78.86 27.0113 78.988C26.6993 79.116 26.3153 79.18 25.8593 79.18ZM26.2313 78.076C26.5673 78.076 26.8713 78.012 27.1433 77.884C27.4153 77.748 27.6233 77.564 27.7673 77.332V76.696C27.3273 76.384 26.8233 76.228 26.2553 76.228C25.4473 76.228 25.0433 76.54 25.0433 77.164C25.0433 77.468 25.1433 77.696 25.3433 77.848C25.5513 78 25.8473 78.076 26.2313 78.076ZM32.6844 79.18C32.0524 79.18 31.5724 79.004 31.2444 78.652C30.9164 78.3 30.7524 77.804 30.7524 77.164V74.392H29.8884V73.24H30.7524V71.512H32.2644V73.24H33.6444V74.392H32.2644V76.972C32.2644 77.34 32.3324 77.604 32.4684 77.764C32.6044 77.916 32.8524 77.992 33.2124 77.992C33.4604 77.992 33.7044 77.936 33.9444 77.824V78.976C33.6004 79.112 33.1804 79.18 32.6844 79.18ZM38.2608 79.18C37.1888 79.18 36.3408 78.912 35.7168 78.376C35.0928 77.84 34.7808 77.092 34.7808 76.132C34.7808 75.188 35.0568 74.44 35.6088 73.888C36.1608 73.336 36.9488 73.06 37.9728 73.06C38.6448 73.06 39.2168 73.188 39.6888 73.444C40.1688 73.7 40.5288 74.052 40.7688 74.5C41.0088 74.94 41.1288 75.444 41.1288 76.012V76.708H36.2208C36.3248 77.564 37.0688 77.992 38.4528 77.992C38.8208 77.992 39.1968 77.96 39.5808 77.896C39.9648 77.832 40.3008 77.744 40.5888 77.632V78.796C40.3168 78.908 39.9648 79 39.5328 79.072C39.1088 79.144 38.6848 79.18 38.2608 79.18ZM39.7008 75.676C39.6848 75.22 39.5208 74.868 39.2088 74.62C38.9048 74.372 38.4848 74.248 37.9488 74.248C37.4208 74.248 37.0048 74.376 36.7008 74.632C36.3968 74.888 36.2368 75.236 36.2208 75.676H39.7008ZM42.3333 73.24H43.7973V74.164C44.0293 73.852 44.3573 73.62 44.7813 73.468C45.2133 73.316 45.7053 73.24 46.2573 73.24V74.392C45.6733 74.392 45.1653 74.484 44.7333 74.668C44.3093 74.844 44.0133 75.124 43.8453 75.508V79H42.3333V73.24ZM47.22 73.24H48.636V73.996C48.892 73.692 49.192 73.46 49.536 73.3C49.88 73.14 50.228 73.06 50.58 73.06C51.028 73.06 51.388 73.136 51.66 73.288C51.932 73.432 52.136 73.652 52.272 73.948C52.528 73.66 52.836 73.44 53.196 73.288C53.564 73.136 53.928 73.06 54.288 73.06C55.008 73.06 55.524 73.24 55.836 73.6C56.148 73.96 56.304 74.488 56.304 75.184V79H54.852V75.388C54.852 74.98 54.768 74.688 54.6 74.512C54.44 74.336 54.18 74.248 53.82 74.248C53.564 74.248 53.328 74.3 53.112 74.404C52.904 74.5 52.712 74.668 52.536 74.908C52.552 75.164 52.56 75.372 52.56 75.532V79H51.096V75.364C51.096 74.948 51.028 74.66 50.892 74.5C50.756 74.332 50.508 74.248 50.148 74.248C49.604 74.248 49.116 74.556 48.684 75.172V79H47.22V73.24ZM59.6211 79.18C58.9331 79.18 58.3691 79 57.9291 78.64C57.4891 78.272 57.2691 77.78 57.2691 77.164C57.2691 76.524 57.4771 76.024 57.8931 75.664C58.3091 75.304 58.8931 75.124 59.6451 75.124C60.3731 75.124 61.0011 75.272 61.5291 75.568V75.412C61.5291 75.004 61.4011 74.708 61.1451 74.524C60.8971 74.34 60.4931 74.248 59.9331 74.248C59.5811 74.248 59.2331 74.284 58.8891 74.356C58.5451 74.42 58.2411 74.512 57.9771 74.632V73.444C58.2171 73.332 58.5371 73.24 58.9371 73.168C59.3451 73.096 59.7371 73.06 60.1131 73.06C61.1131 73.06 61.8531 73.276 62.3331 73.708C62.8131 74.132 63.0531 74.724 63.0531 75.484V79H61.6251V78.436C61.3771 78.676 61.0931 78.86 60.7731 78.988C60.4611 79.116 60.0771 79.18 59.6211 79.18ZM59.9931 78.076C60.3291 78.076 60.6331 78.012 60.9051 77.884C61.1771 77.748 61.3851 77.564 61.5291 77.332V76.696C61.0891 76.384 60.5851 76.228 60.0171 76.228C59.2091 76.228 58.8051 76.54 58.8051 77.164C58.8051 77.468 58.9051 77.696 59.1051 77.848C59.3131 78 59.6091 78.076 59.9931 78.076ZM64.4348 73.24H65.8988V74.164C66.1308 73.852 66.4588 73.62 66.8828 73.468C67.3148 73.316 67.8068 73.24 68.3588 73.24V74.392C67.7748 74.392 67.2668 74.484 66.8348 74.668C66.4108 74.844 66.1148 75.124 65.9468 75.508V79H64.4348V73.24ZM69.3216 70.132H70.8336V75.772L73.1256 73.24H74.9016L72.3336 76.06L75.1896 79H73.4136L70.8336 76.336V79H69.3216V70.132Z" fill="#999999"/>
<path d="M6.636 44.18C5.668 44.18 4.9 43.908 4.332 43.364C3.764 42.812 3.48 42.008 3.48 40.952C3.48 40.232 3.584 39.604 3.792 39.068C4 38.532 4.288 38.12 4.656 37.832C5.024 37.544 5.436 37.4 5.892 37.4C6.484 37.4 6.916 37.628 7.188 38.084C7.34 37.844 7.556 37.672 7.836 37.568C8.116 37.456 8.424 37.4 8.76 37.4C9.336 37.4 9.772 37.584 10.068 37.952C10.364 38.312 10.512 38.796 10.512 39.404V44H8.988V39.512C8.988 39.192 8.94 38.96 8.844 38.816C8.748 38.664 8.584 38.588 8.352 38.588C7.952 38.588 7.708 38.82 7.62 39.284H6.768C6.72 38.82 6.512 38.588 6.144 38.588C5.816 38.588 5.548 38.792 5.34 39.2C5.14 39.6 5.04 40.184 5.04 40.952C5.04 42.312 5.66 42.992 6.9 42.992C7.196 42.992 7.472 42.952 7.728 42.872V44.036C7.416 44.132 7.052 44.18 6.636 44.18ZM5.14256 35.732H10.5066V36.704H5.14256V35.732ZM14.8626 44.18C13.8866 44.18 13.1146 43.908 12.5466 43.364C11.9866 42.812 11.7066 42.008 11.7066 40.952C11.7066 40.216 11.8506 39.584 12.1386 39.056C12.4346 38.52 12.8546 38.112 13.3986 37.832C13.9506 37.544 14.5986 37.4 15.3426 37.4C16.5186 37.4 17.3786 37.672 17.9226 38.216C18.4666 38.76 18.7386 39.468 18.7386 40.34V44H17.2146V40.328C17.2146 39.768 17.0666 39.34 16.7706 39.044C16.4826 38.74 16.0066 38.588 15.3426 38.588C14.7026 38.588 14.1946 38.796 13.8186 39.212C13.4506 39.62 13.2666 40.2 13.2666 40.952C13.2666 41.64 13.4266 42.152 13.7466 42.488C14.0666 42.824 14.5266 42.992 15.1266 42.992C15.4226 42.992 15.6986 42.952 15.9546 42.872V44.036C15.6426 44.132 15.2786 44.18 14.8626 44.18ZM23.0891 44.18C22.1211 44.18 21.3531 43.908 20.7851 43.364C20.2171 42.812 19.9331 42.008 19.9331 40.952C19.9331 40.232 20.0371 39.604 20.2451 39.068C20.4531 38.532 20.7411 38.12 21.1091 37.832C21.4771 37.544 21.8891 37.4 22.3451 37.4C22.9371 37.4 23.3691 37.628 23.6411 38.084C23.7931 37.844 24.0091 37.672 24.2891 37.568C24.5691 37.456 24.8771 37.4 25.2131 37.4C25.7891 37.4 26.2251 37.584 26.5211 37.952C26.8171 38.312 26.9651 38.796 26.9651 39.404V44H25.4411V39.512C25.4411 39.192 25.3931 38.96 25.2971 38.816C25.2011 38.664 25.0371 38.588 24.8051 38.588C24.4051 38.588 24.1611 38.82 24.0731 39.284H23.2211C23.1731 38.82 22.9651 38.588 22.5971 38.588C22.2691 38.588 22.0011 38.792 21.7931 39.2C21.5931 39.6 21.4931 40.184 21.4931 40.952C21.4931 42.312 22.1131 42.992 23.3531 42.992C23.6491 42.992 23.9251 42.952 24.1811 42.872V44.036C23.8691 44.132 23.5051 44.18 23.0891 44.18ZM25.4477 34.64H26.9717V36.704H25.4477V34.64ZM30.9077 44.18C30.3957 44.18 29.8917 44.124 29.3957 44.012C28.8997 43.9 28.4877 43.744 28.1597 43.544V40.184H31.0397V41.42H29.6837V42.752C29.9797 42.912 30.3877 42.992 30.9077 42.992C31.6117 42.992 32.1437 42.8 32.5037 42.416C32.8637 42.032 33.0437 41.472 33.0437 40.736C33.0437 40.232 32.9637 39.824 32.8037 39.512C32.6437 39.2 32.3797 38.968 32.0117 38.816C31.6437 38.664 31.1477 38.588 30.5237 38.588C30.1157 38.588 29.6997 38.632 29.2757 38.72C28.8597 38.8 28.5117 38.92 28.2317 39.08V37.892C28.5517 37.732 28.9317 37.612 29.3717 37.532C29.8197 37.444 30.2917 37.4 30.7877 37.4C32.0037 37.4 32.9437 37.692 33.6077 38.276C34.2717 38.852 34.6037 39.672 34.6037 40.736C34.6037 41.8 34.2837 42.64 33.6437 43.256C33.0117 43.872 32.0997 44.18 30.9077 44.18ZM35.8059 40.112C35.8059 39.248 36.0899 38.58 36.6579 38.108C37.2339 37.636 38.0099 37.4 38.9859 37.4C39.9619 37.4 40.7339 37.636 41.3019 38.108C41.8699 38.58 42.1539 39.248 42.1539 40.112V44H40.6299V40.052C40.6299 39.564 40.4859 39.2 40.1979 38.96C39.9179 38.712 39.5139 38.588 38.9859 38.588C38.4579 38.588 38.0499 38.708 37.7619 38.948C37.4739 39.188 37.3299 39.556 37.3299 40.052V41.108C37.4339 40.94 37.5859 40.804 37.7859 40.7C37.9939 40.596 38.2339 40.544 38.5059 40.544H39.4779V41.816H38.3979C38.0859 41.816 37.8299 41.92 37.6299 42.128C37.4299 42.328 37.3299 42.572 37.3299 42.86V44H35.8059V40.112ZM40.8269 45.98C40.8269 45.836 40.8029 45.736 40.7549 45.68C40.7069 45.624 40.6109 45.596 40.4669 45.596H40.0469V44.624H41.1629C41.5629 44.624 41.8349 44.696 41.9789 44.84C42.1229 44.992 42.1949 45.264 42.1949 45.656V47.216H40.8269V45.98ZM50.5709 44.18C50.0669 44.18 49.6349 44.076 49.2749 43.868C48.9229 43.652 48.6549 43.36 48.4709 42.992C48.2869 42.616 48.1949 42.2 48.1949 41.744V40.052C48.1949 39.548 48.0749 39.18 47.8349 38.948C47.5949 38.708 47.2309 38.588 46.7429 38.588C46.3749 38.588 46.0509 38.644 45.7709 38.756C45.4909 38.868 45.2309 39.052 44.9909 39.308L45.4829 40.1V42.164C45.4829 42.372 45.5269 42.52 45.6149 42.608C45.7109 42.688 45.8669 42.728 46.0829 42.728H46.7309V44H45.2669C44.8429 44 44.5189 43.88 44.2949 43.64C44.0709 43.4 43.9589 43.072 43.9589 42.656V40.088L43.3589 39.092C43.7989 38.54 44.2909 38.12 44.8349 37.832C45.3869 37.544 46.0229 37.4 46.7429 37.4C47.7109 37.4 48.4469 37.624 48.9509 38.072C49.4549 38.512 49.7069 39.132 49.7069 39.932V41.672C49.7069 42.12 49.8109 42.452 50.0189 42.668C50.2269 42.884 50.5549 42.992 51.0029 42.992C51.3549 42.992 51.6749 42.908 51.9629 42.74C52.2589 42.564 52.4789 42.32 52.6229 42.008V37.58H54.1349V44H52.6709V43.244C52.1669 43.868 51.4669 44.18 50.5709 44.18ZM55.5875 40.472H57.0995L57.6755 42.812C58.3475 42.812 58.8875 42.636 59.2955 42.284C59.7115 41.924 59.9195 41.416 59.9195 40.76C59.9195 40.056 59.7395 39.52 59.3795 39.152C59.0195 38.776 58.4235 38.588 57.5915 38.588C57.1915 38.588 56.7835 38.628 56.3675 38.708C55.9515 38.788 55.6075 38.892 55.3355 39.02V37.832C55.6475 37.696 56.0195 37.592 56.4515 37.52C56.8835 37.44 57.3275 37.4 57.7835 37.4C58.9435 37.4 59.8475 37.692 60.4955 38.276C61.1515 38.86 61.4795 39.688 61.4795 40.76C61.4795 41.408 61.3195 41.976 60.9995 42.464C60.6795 42.952 60.2435 43.332 59.6915 43.604C59.1395 43.868 58.5355 44 57.8795 44H56.4635L55.5875 40.472ZM62.437 38.384H63.961L65.365 42.812C66.037 42.812 66.553 42.624 66.913 42.248C67.281 41.864 67.465 41.32 67.465 40.616C67.465 39.936 67.341 39.428 67.093 39.092C66.845 38.756 66.449 38.588 65.905 38.588C65.609 38.588 65.333 38.628 65.077 38.708V37.544C65.389 37.448 65.753 37.4 66.169 37.4C67.105 37.4 67.813 37.684 68.293 38.252C68.781 38.82 69.025 39.608 69.025 40.616C69.025 41.32 68.869 41.928 68.557 42.44C68.253 42.952 67.841 43.34 67.321 43.604C66.801 43.868 66.225 44 65.593 44H64.213L62.437 38.384ZM73.1399 44.18C72.1639 44.18 71.3919 43.908 70.8239 43.364C70.2639 42.812 69.9839 42.008 69.9839 40.952C69.9839 40.216 70.1279 39.584 70.4159 39.056C70.7119 38.52 71.1319 38.112 71.6759 37.832C72.2279 37.544 72.8759 37.4 73.6199 37.4C74.7959 37.4 75.6559 37.672 76.1999 38.216C76.7439 38.76 77.0159 39.468 77.0159 40.34V44H75.4919V40.328C75.4919 39.768 75.3439 39.34 75.0479 39.044C74.7599 38.74 74.2839 38.588 73.6199 38.588C72.9799 38.588 72.4719 38.796 72.0959 39.212C71.7279 39.62 71.5439 40.2 71.5439 40.952C71.5439 41.64 71.7039 42.152 72.0239 42.488C72.3439 42.824 72.8039 42.992 73.4039 42.992C73.6999 42.992 73.9759 42.952 74.2319 42.872V44.036C73.9199 44.132 73.5559 44.18 73.1399 44.18ZM71.6705 35.732H75.6665V34.436H77.0345V36.704H71.6705V35.732ZM7.092 62.18C6.356 62.18 5.716 62.004 5.172 61.652C4.628 61.3 4.208 60.796 3.912 60.14C3.624 59.484 3.48 58.708 3.48 57.812C3.48 56.916 3.624 56.14 3.912 55.484C4.2 54.82 4.612 54.312 5.148 53.96C5.692 53.608 6.34 53.432 7.092 53.432C7.836 53.432 8.48 53.608 9.024 53.96C9.568 54.312 9.984 54.82 10.272 55.484C10.56 56.14 10.704 56.916 10.704 57.812C10.704 58.708 10.56 59.484 10.272 60.14C9.984 60.796 9.568 61.3 9.024 61.652C8.48 62.004 7.836 62.18 7.092 62.18ZM7.092 60.812C7.756 60.812 8.268 60.548 8.628 60.02C8.996 59.484 9.18 58.752 9.18 57.824C9.18 56.896 9 56.164 8.64 55.628C8.28 55.092 7.768 54.824 7.104 54.824C6.44 54.824 5.924 55.092 5.556 55.628C5.196 56.164 5.016 56.896 5.016 57.824C5.016 58.752 5.196 59.484 5.556 60.02C5.924 60.548 6.436 60.812 7.092 60.812ZM14.0597 62.18C13.5717 62.18 13.1397 62.124 12.7637 62.012V60.788C13.0757 60.932 13.4677 61.004 13.9397 61.004C14.7237 61.004 15.3437 60.772 15.7997 60.308C16.2557 59.836 16.5277 59.156 16.6157 58.268C16.1037 58.812 15.3797 59.084 14.4437 59.084C13.8997 59.084 13.4157 58.972 12.9917 58.748C12.5757 58.524 12.2477 58.204 12.0077 57.788C11.7757 57.372 11.6597 56.884 11.6597 56.324C11.6597 55.772 11.7837 55.276 12.0317 54.836C12.2797 54.396 12.6437 54.052 13.1237 53.804C13.6117 53.556 14.1877 53.432 14.8517 53.432C15.4757 53.432 16.0357 53.576 16.5317 53.864C17.0277 54.152 17.4157 54.572 17.6957 55.124C17.9837 55.676 18.1277 56.336 18.1277 57.104C18.1277 58.184 17.9637 59.104 17.6357 59.864C17.3157 60.624 16.8477 61.2 16.2317 61.592C15.6237 61.984 14.8997 62.18 14.0597 62.18ZM14.8517 57.968C15.3317 57.968 15.7317 57.808 16.0517 57.488C16.3717 57.16 16.5317 56.748 16.5317 56.252C16.5317 55.948 16.4597 55.668 16.3157 55.412C16.1797 55.148 15.9837 54.94 15.7277 54.788C15.4797 54.628 15.1877 54.548 14.8517 54.548C14.3397 54.548 13.9277 54.704 13.6157 55.016C13.3117 55.328 13.1597 55.74 13.1597 56.252C13.1597 56.772 13.3117 57.188 13.6157 57.5C13.9277 57.812 14.3397 57.968 14.8517 57.968ZM21.4894 62.18C21.0014 62.18 20.5694 62.124 20.1934 62.012V60.788C20.5054 60.932 20.8974 61.004 21.3694 61.004C22.1534 61.004 22.7734 60.772 23.2294 60.308C23.6854 59.836 23.9574 59.156 24.0454 58.268C23.5334 58.812 22.8094 59.084 21.8734 59.084C21.3294 59.084 20.8454 58.972 20.4214 58.748C20.0054 58.524 19.6774 58.204 19.4374 57.788C19.2054 57.372 19.0894 56.884 19.0894 56.324C19.0894 55.772 19.2134 55.276 19.4614 54.836C19.7094 54.396 20.0734 54.052 20.5534 53.804C21.0414 53.556 21.6174 53.432 22.2814 53.432C22.9054 53.432 23.4654 53.576 23.9614 53.864C24.4574 54.152 24.8454 54.572 25.1254 55.124C25.4134 55.676 25.5574 56.336 25.5574 57.104C25.5574 58.184 25.3934 59.104 25.0654 59.864C24.7454 60.624 24.2774 61.2 23.6614 61.592C23.0534 61.984 22.3294 62.18 21.4894 62.18ZM22.2814 57.968C22.7614 57.968 23.1614 57.808 23.4814 57.488C23.8014 57.16 23.9614 56.748 23.9614 56.252C23.9614 55.948 23.8894 55.668 23.7454 55.412C23.6094 55.148 23.4134 54.94 23.1574 54.788C22.9094 54.628 22.6174 54.548 22.2814 54.548C21.7694 54.548 21.3574 54.704 21.0454 55.016C20.7414 55.328 20.5894 55.74 20.5894 56.252C20.5894 56.772 20.7414 57.188 21.0454 57.5C21.3574 57.812 21.7694 57.968 22.2814 57.968ZM26.5191 57.8H30.5031V59.012H26.5191V57.8ZM33.8644 62.18C33.3764 62.18 32.9444 62.124 32.5684 62.012V60.788C32.8804 60.932 33.2724 61.004 33.7444 61.004C34.5284 61.004 35.1484 60.772 35.6044 60.308C36.0604 59.836 36.3324 59.156 36.4204 58.268C35.9084 58.812 35.1844 59.084 34.2484 59.084C33.7044 59.084 33.2204 58.972 32.7964 58.748C32.3804 58.524 32.0524 58.204 31.8124 57.788C31.5804 57.372 31.4644 56.884 31.4644 56.324C31.4644 55.772 31.5884 55.276 31.8364 54.836C32.0844 54.396 32.4484 54.052 32.9284 53.804C33.4164 53.556 33.9924 53.432 34.6564 53.432C35.2804 53.432 35.8404 53.576 36.3364 53.864C36.8324 54.152 37.2204 54.572 37.5004 55.124C37.7884 55.676 37.9324 56.336 37.9324 57.104C37.9324 58.184 37.7684 59.104 37.4404 59.864C37.1204 60.624 36.6524 61.2 36.0364 61.592C35.4284 61.984 34.7044 62.18 33.8644 62.18ZM34.6564 57.968C35.1364 57.968 35.5364 57.808 35.8564 57.488C36.1764 57.16 36.3364 56.748 36.3364 56.252C36.3364 55.948 36.2644 55.668 36.1204 55.412C35.9844 55.148 35.7884 54.94 35.5324 54.788C35.2844 54.628 34.9924 54.548 34.6564 54.548C34.1444 54.548 33.7324 54.704 33.4204 55.016C33.1164 55.328 32.9644 55.74 32.9644 56.252C32.9644 56.772 33.1164 57.188 33.4204 57.5C33.7324 57.812 34.1444 57.968 34.6564 57.968ZM41.2941 62.18C40.8061 62.18 40.3741 62.124 39.9981 62.012V60.788C40.3101 60.932 40.7021 61.004 41.1741 61.004C41.9581 61.004 42.5781 60.772 43.0341 60.308C43.4901 59.836 43.7621 59.156 43.8501 58.268C43.3381 58.812 42.6141 59.084 41.6781 59.084C41.1341 59.084 40.6501 58.972 40.2261 58.748C39.8101 58.524 39.4821 58.204 39.2421 57.788C39.0101 57.372 38.8941 56.884 38.8941 56.324C38.8941 55.772 39.0181 55.276 39.2661 54.836C39.5141 54.396 39.8781 54.052 40.3581 53.804C40.8461 53.556 41.4221 53.432 42.0861 53.432C42.7101 53.432 43.2701 53.576 43.7661 53.864C44.2621 54.152 44.6501 54.572 44.9301 55.124C45.2181 55.676 45.3621 56.336 45.3621 57.104C45.3621 58.184 45.1981 59.104 44.8701 59.864C44.5501 60.624 44.0821 61.2 43.4661 61.592C42.8581 61.984 42.1341 62.18 41.2941 62.18ZM42.0861 57.968C42.5661 57.968 42.9661 57.808 43.2861 57.488C43.6061 57.16 43.7661 56.748 43.7661 56.252C43.7661 55.948 43.6941 55.668 43.5501 55.412C43.4141 55.148 43.2181 54.94 42.9621 54.788C42.7141 54.628 42.4221 54.548 42.0861 54.548C41.5741 54.548 41.1621 54.704 40.8501 55.016C40.5461 55.328 40.3941 55.74 40.3941 56.252C40.3941 56.772 40.5461 57.188 40.8501 57.5C41.1621 57.812 41.5741 57.968 42.0861 57.968ZM48.7238 62.18C48.2358 62.18 47.8038 62.124 47.4277 62.012V60.788C47.7398 60.932 48.1318 61.004 48.6038 61.004C49.3878 61.004 50.0078 60.772 50.4638 60.308C50.9198 59.836 51.1918 59.156 51.2798 58.268C50.7678 58.812 50.0438 59.084 49.1078 59.084C48.5638 59.084 48.0798 58.972 47.6558 58.748C47.2398 58.524 46.9118 58.204 46.6718 57.788C46.4398 57.372 46.3238 56.884 46.3238 56.324C46.3238 55.772 46.4478 55.276 46.6958 54.836C46.9438 54.396 47.3078 54.052 47.7878 53.804C48.2758 53.556 48.8518 53.432 49.5158 53.432C50.1398 53.432 50.6998 53.576 51.1958 53.864C51.6918 54.152 52.0798 54.572 52.3598 55.124C52.6478 55.676 52.7918 56.336 52.7918 57.104C52.7918 58.184 52.6278 59.104 52.2998 59.864C51.9798 60.624 51.5118 61.2 50.8958 61.592C50.2878 61.984 49.5638 62.18 48.7238 62.18ZM49.5158 57.968C49.9958 57.968 50.3958 57.808 50.7158 57.488C51.0358 57.16 51.1958 56.748 51.1958 56.252C51.1958 55.948 51.1238 55.668 50.9798 55.412C50.8438 55.148 50.6478 54.94 50.3918 54.788C50.1438 54.628 49.8518 54.548 49.5158 54.548C49.0038 54.548 48.5918 54.704 48.2798 55.016C47.9758 55.328 47.8238 55.74 47.8238 56.252C47.8238 56.772 47.9758 57.188 48.2798 57.5C48.5918 57.812 49.0038 57.968 49.5158 57.968ZM53.7534 57.8H57.7374V59.012H53.7534V57.8ZM61.0988 62.18C60.6108 62.18 60.1788 62.124 59.8027 62.012V60.788C60.1148 60.932 60.5068 61.004 60.9788 61.004C61.7628 61.004 62.3828 60.772 62.8388 60.308C63.2948 59.836 63.5668 59.156 63.6548 58.268C63.1428 58.812 62.4188 59.084 61.4828 59.084C60.9388 59.084 60.4548 58.972 60.0308 58.748C59.6148 58.524 59.2868 58.204 59.0468 57.788C58.8148 57.372 58.6988 56.884 58.6988 56.324C58.6988 55.772 58.8228 55.276 59.0708 54.836C59.3188 54.396 59.6828 54.052 60.1628 53.804C60.6508 53.556 61.2268 53.432 61.8908 53.432C62.5148 53.432 63.0748 53.576 63.5708 53.864C64.0668 54.152 64.4548 54.572 64.7348 55.124C65.0228 55.676 65.1668 56.336 65.1668 57.104C65.1668 58.184 65.0028 59.104 64.6748 59.864C64.3548 60.624 63.8868 61.2 63.2708 61.592C62.6628 61.984 61.9388 62.18 61.0988 62.18ZM61.8908 57.968C62.3708 57.968 62.7708 57.808 63.0908 57.488C63.4108 57.16 63.5708 56.748 63.5708 56.252C63.5708 55.948 63.4988 55.668 63.3548 55.412C63.2188 55.148 63.0228 54.94 62.7668 54.788C62.5188 54.628 62.2268 54.548 61.8908 54.548C61.3788 54.548 60.9668 54.704 60.6548 55.016C60.3508 55.328 60.1988 55.74 60.1988 56.252C60.1988 56.772 60.3508 57.188 60.6548 57.5C60.9668 57.812 61.3788 57.968 61.8908 57.968ZM68.5284 62.18C68.0404 62.18 67.6084 62.124 67.2324 62.012V60.788C67.5444 60.932 67.9364 61.004 68.4084 61.004C69.1924 61.004 69.8124 60.772 70.2684 60.308C70.7244 59.836 70.9964 59.156 71.0844 58.268C70.5724 58.812 69.8484 59.084 68.9124 59.084C68.3684 59.084 67.8844 58.972 67.4604 58.748C67.0444 58.524 66.7164 58.204 66.4764 57.788C66.2444 57.372 66.1284 56.884 66.1284 56.324C66.1284 55.772 66.2524 55.276 66.5004 54.836C66.7484 54.396 67.1124 54.052 67.5924 53.804C68.0804 53.556 68.6564 53.432 69.3204 53.432C69.9444 53.432 70.5044 53.576 71.0004 53.864C71.4964 54.152 71.8844 54.572 72.1644 55.124C72.4524 55.676 72.5964 56.336 72.5964 57.104C72.5964 58.184 72.4324 59.104 72.1044 59.864C71.7844 60.624 71.3164 61.2 70.7004 61.592C70.0924 61.984 69.3684 62.18 68.5284 62.18ZM69.3204 57.968C69.8004 57.968 70.2004 57.808 70.5204 57.488C70.8404 57.16 71.0004 56.748 71.0004 56.252C71.0004 55.948 70.9284 55.668 70.7844 55.412C70.6484 55.148 70.4524 54.94 70.1964 54.788C69.9484 54.628 69.6564 54.548 69.3204 54.548C68.8084 54.548 68.3964 54.704 68.0844 55.016C67.7804 55.328 67.6284 55.74 67.6284 56.252C67.6284 56.772 67.7804 57.188 68.0844 57.5C68.3964 57.812 68.8084 57.968 69.3204 57.968ZM75.9581 62.18C75.4701 62.18 75.0381 62.124 74.6621 62.012V60.788C74.9741 60.932 75.3661 61.004 75.8381 61.004C76.6221 61.004 77.2421 60.772 77.6981 60.308C78.1541 59.836 78.4261 59.156 78.5141 58.268C78.0021 58.812 77.2781 59.084 76.3421 59.084C75.7981 59.084 75.3141 58.972 74.8901 58.748C74.4741 58.524 74.1461 58.204 73.9061 57.788C73.6741 57.372 73.5581 56.884 73.5581 56.324C73.5581 55.772 73.6821 55.276 73.9301 54.836C74.1781 54.396 74.5421 54.052 75.0221 53.804C75.5101 53.556 76.0861 53.432 76.7501 53.432C77.3741 53.432 77.9341 53.576 78.4301 53.864C78.9261 54.152 79.3141 54.572 79.5941 55.124C79.8821 55.676 80.0261 56.336 80.0261 57.104C80.0261 58.184 79.8621 59.104 79.5341 59.864C79.2141 60.624 78.7461 61.2 78.1301 61.592C77.5221 61.984 76.7981 62.18 75.9581 62.18ZM76.7501 57.968C77.2301 57.968 77.6301 57.808 77.9501 57.488C78.2701 57.16 78.4301 56.748 78.4301 56.252C78.4301 55.948 78.3581 55.668 78.2141 55.412C78.0781 55.148 77.8821 54.94 77.6261 54.788C77.3781 54.628 77.0861 54.548 76.7501 54.548C76.2381 54.548 75.8261 54.704 75.5141 55.016C75.2101 55.328 75.0581 55.74 75.0581 56.252C75.0581 56.772 75.2101 57.188 75.5141 57.5C75.8261 57.812 76.2381 57.968 76.7501 57.968ZM83.3878 62.18C82.8998 62.18 82.4678 62.124 82.0918 62.012V60.788C82.4038 60.932 82.7958 61.004 83.2678 61.004C84.0518 61.004 84.6718 60.772 85.1278 60.308C85.5838 59.836 85.8558 59.156 85.9438 58.268C85.4318 58.812 84.7078 59.084 83.7718 59.084C83.2278 59.084 82.7438 58.972 82.3198 58.748C81.9038 58.524 81.5758 58.204 81.3358 57.788C81.1038 57.372 80.9878 56.884 80.9878 56.324C80.9878 55.772 81.1118 55.276 81.3598 54.836C81.6078 54.396 81.9718 54.052 82.4518 53.804C82.9398 53.556 83.5158 53.432 84.1798 53.432C84.8038 53.432 85.3638 53.576 85.8598 53.864C86.3558 54.152 86.7438 54.572 87.0238 55.124C87.3118 55.676 87.4558 56.336 87.4558 57.104C87.4558 58.184 87.2918 59.104 86.9638 59.864C86.6438 60.624 86.1758 61.2 85.5598 61.592C84.9518 61.984 84.2278 62.18 83.3878 62.18ZM84.1798 57.968C84.6598 57.968 85.0598 57.808 85.3798 57.488C85.6998 57.16 85.8598 56.748 85.8598 56.252C85.8598 55.948 85.7878 55.668 85.6438 55.412C85.5078 55.148 85.3118 54.94 85.0558 54.788C84.8078 54.628 84.5158 54.548 84.1798 54.548C83.6678 54.548 83.2558 54.704 82.9438 55.016C82.6398 55.328 82.4878 55.74 82.4878 56.252C82.4878 56.772 82.6398 57.188 82.9438 57.5C83.2558 57.812 83.6678 57.968 84.1798 57.968Z" fill="#333333"/>
</svg>
