<svg width="92" height="84" viewBox="0 0 92 84" fill="none" xmlns="http://www.w3.org/2000/svg">
<path d="M67.469 50.1211L52.3511 59.1903V82.9873H82.588V59.1903L67.469 50.1211Z" fill="#999999"/>
<path d="M82.6387 59.2005L67.5198 50.1313L52.4019 59.2005V70.9586C56.7591 69.4282 61.502 63.7027 65.6372 63.1031C70.6042 62.3824 74.2427 70.0791 79.1434 70.8801C80.3656 71.0796 81.5499 71.0167 82.6397 70.8094V59.2005H82.6387Z" fill="#D6D8D6"/>
<path d="M85.2293 61.8913L67.5198 51.2627L50.006 61.7693L49 60.111L67.5208 49L86.2354 60.2321L85.2293 61.8913Z" fill="#999999"/>
<path d="M68.4351 62.2695H55.2124V71.7678H68.4351V62.2695Z" fill="white"/>
<path d="M55.2124 67.019H68.4361" stroke="#999999" stroke-width="5" stroke-miterlimit="10"/>
<path d="M61.8242 62.2695V71.7678" stroke="#999999" stroke-width="5" stroke-miterlimit="10"/>
<path d="M87.5 0.5H47.5V40.5H87.5V0.5Z" fill="white"/>
<mask id="path-8-inside-1" fill="white">
<path d="M87 1V40H48V1H87ZM88 0H47V41H88V0Z"/>
</mask>
<path d="M87 1V40H48V1H87ZM88 0H47V41H88V0Z" fill="black"/>
<path d="M87 1H88V0H87V1ZM87 40V41H88V40H87ZM48 40H47V41H48V40ZM48 1V0H47V1H48ZM88 0H89V-1H88V0ZM47 0V-1H46V0H47ZM47 41H46V42H47V41ZM88 41V42H89V41H88ZM86 1V40H88V1H86ZM87 39H48V41H87V39ZM49 40V1H47V40H49ZM48 2H87V0H48V2ZM88 -1H47V1H88V-1ZM46 0V41H48V0H46ZM47 42H88V40H47V42ZM89 41V0H87V41H89Z" fill="#999999" mask="url(#path-8-inside-1)"/>
<path d="M47.5 33.5L59.5 24.5L70.5 33.5L87.5 16.5V40.5H47.5V33.5Z" fill="#999999"/>
<path d="M75 14.5C76.933 14.5 78.5 12.933 78.5 11C78.5 9.067 76.933 7.5 75 7.5C73.067 7.5 71.5 9.067 71.5 11C71.5 12.933 73.067 14.5 75 14.5Z" fill="#999999" stroke="#999999" stroke-miterlimit="10"/>
<mask id="path-12-inside-2" fill="white">
<path d="M87 44V83H48V44H87ZM88 43H47V84H88V43Z"/>
</mask>
<path d="M87 44V83H48V44H87ZM88 43H47V84H88V43Z" fill="black"/>
<path d="M87 44H88V43H87V44ZM87 83V84H88V83H87ZM48 83H47V84H48V83ZM48 44V43H47V44H48ZM88 43H89V42H88V43ZM47 43V42H46V43H47ZM47 84H46V85H47V84ZM88 84V85H89V84H88ZM86 44V83H88V44H86ZM87 82H48V84H87V82ZM49 83V44H47V83H49ZM48 45H87V43H48V45ZM88 42H47V44H88V42ZM46 43V84H48V43H46ZM47 85H88V83H47V85ZM89 84V43H87V84H89Z" fill="#999999" mask="url(#path-12-inside-2)"/>
<mask id="path-14-inside-3" fill="white">
<path d="M41 44V83H2V44H41ZM42 43H1V84H42V43Z"/>
</mask>
<path d="M41 44V83H2V44H41ZM42 43H1V84H42V43Z" fill="black"/>
<path d="M41 44H42V43H41V44ZM41 83V84H42V83H41ZM2 83H1V84H2V83ZM2 44V43H1V44H2ZM42 43H43V42H42V43ZM1 43V42H0V43H1ZM1 84H0V85H1V84ZM42 84V85H43V84H42ZM40 44V83H42V44H40ZM41 82H2V84H41V82ZM3 83V44H1V83H3ZM2 45H41V43H2V45ZM42 42H1V44H42V42ZM0 43V84H2V43H0ZM1 85H42V83H1V85ZM43 84V43H41V84H43Z" fill="#999999" mask="url(#path-14-inside-3)"/>
<g clip-path="url(#clip0)">
<path d="M1.7002 40V0.5H41.5002V40H1.7002Z" fill="white" stroke="#999999"/>
<path d="M2 39.8996C6.2 36.8865 11.7 36.3843 16.3 33.9738C17.2 33.5721 18.1 32.9694 18.7 32.2664C19.3 31.4629 19.7 30.4585 19.5 29.4541C19.4 29.0524 19.2 28.6507 19.2 28.1485C19.2 27.4454 19.7 26.8428 20.3 26.441C20.9 26.0393 21.6 25.8384 22.3 25.6376C24.2 25.0349 25.9 24.131 27.7 23.3275C32 21.2183 36.7 19.1092 41 17C41 17.5 41 17.9039 41 18.4061C40.9 18.8079 40.7 19.2096 40.5 19.6114C39.7 20.917 38.9 22.3231 37.7 23.3275C36.9 23.9301 36 24.4323 35.2 25.0349C34.4 25.6376 33.8 26.6419 34.1 27.6463C34.2 28.2489 34.6 28.6507 35 29.1528C35.6 29.9563 36.2 30.6594 36.9 31.4629C37.5 32.1659 38.1 32.9694 38.4 33.9738C38.7 35.0786 38.4 36.3843 37.7 37.3886C37.1 38.393 36.2 39.1965 35.4 40L2 39.8996Z" fill="#999999"/>
<path d="M11.1001 27.5H8.1001V33.5H11.1001V27.5Z" fill="#999999"/>
<path d="M20.1001 19.5H18.1001V24.5H20.1001V19.5Z" fill="#999999"/>
<path d="M28 16.5H27V20.5H28V16.5Z" fill="#999999"/>
<path d="M9.5998 29C11.6985 29 13.3998 26.3137 13.3998 23C13.3998 19.6863 11.6985 17 9.5998 17C7.50112 17 5.7998 19.6863 5.7998 23C5.7998 26.3137 7.50112 29 9.5998 29Z" fill="#999999"/>
<path d="M19.1001 21.0998C20.4808 21.0998 21.6001 19.3537 21.6001 17.1998C21.6001 15.0459 20.4808 13.2998 19.1001 13.2998C17.7194 13.2998 16.6001 15.0459 16.6001 17.1998C16.6001 19.3537 17.7194 21.0998 19.1001 21.0998Z" fill="#999999"/>
<path d="M27.4998 17.9C28.4387 17.9 29.1998 16.6912 29.1998 15.2C29.1998 13.7088 28.4387 12.5 27.4998 12.5C26.5609 12.5 25.7998 13.7088 25.7998 15.2C25.7998 16.6912 26.5609 17.9 27.4998 17.9Z" fill="#999999"/>
<path d="M35.8999 15.5H35.3999V18H35.8999V15.5Z" fill="#999999"/>
<path d="M35.6998 16.4C36.1969 16.4 36.5998 15.6389 36.5998 14.7C36.5998 13.7611 36.1969 13 35.6998 13C35.2027 13 34.7998 13.7611 34.7998 14.7C34.7998 15.6389 35.2027 16.4 35.6998 16.4Z" fill="#999999"/>
</g>
<rect x="4" y="54" width="11" height="25" fill="#999999"/>
<rect x="16" y="62" width="11" height="17" fill="#999999"/>
<rect x="28" y="50" width="11" height="29" fill="#999999"/>
<rect x="30" y="52" width="3" height="3" fill="#EBECEB"/>
<rect x="34" y="52" width="3" height="3" fill="#EBECEB"/>
<rect x="30" y="56" width="3" height="3" fill="#EBECEB"/>
<rect x="34" y="56" width="3" height="3" fill="#EBECEB"/>
<rect x="30" y="60" width="3" height="3" fill="#EBECEB"/>
<rect x="34" y="60" width="3" height="3" fill="#EBECEB"/>
<rect x="30" y="64" width="3" height="3" fill="#EBECEB"/>
<rect x="34" y="64" width="3" height="3" fill="#EBECEB"/>
<rect x="30" y="68" width="3" height="3" fill="#EBECEB"/>
<rect x="34" y="68" width="3" height="3" fill="#EBECEB"/>
<rect x="30" y="72" width="3" height="3" fill="#EBECEB"/>
<rect x="34" y="72" width="3" height="3" fill="#EBECEB"/>
<rect x="18" y="64" width="3" height="3" fill="#EBECEB"/>
<rect x="22" y="64" width="3" height="3" fill="#EBECEB"/>
<rect x="18" y="68" width="3" height="3" fill="#EBECEB"/>
<rect x="22" y="68" width="3" height="3" fill="#EBECEB"/>
<rect x="18" y="72" width="3" height="3" fill="#EBECEB"/>
<rect x="22" y="72" width="3" height="3" fill="#EBECEB"/>
<rect x="6" y="56" width="3" height="3" fill="#EBECEB"/>
<rect x="10" y="56" width="3" height="3" fill="#EBECEB"/>
<rect x="6" y="60" width="3" height="3" fill="#EBECEB"/>
<rect x="10" y="60" width="3" height="3" fill="#EBECEB"/>
<rect x="6" y="64" width="3" height="3" fill="#EBECEB"/>
<rect x="10" y="64" width="3" height="3" fill="#EBECEB"/>
<defs>
<clipPath id="clip0">
<rect width="41.7" height="41" fill="white"/>
</clipPath>
</defs>
</svg>
