<svg width="100" height="91" viewBox="0 0 100 91" fill="none" xmlns="http://www.w3.org/2000/svg">
<path d="M49.6011 3L9 27.2751V90.9718H90.2047V27.2751L49.6011 3Z" fill="#999999"/>
<path d="M90.341 27.3035L49.7373 3.02832L9.13623 27.3035V58.7758C20.8382 54.6794 33.5759 39.3542 44.6814 37.7493C58.0207 35.8204 67.7924 56.4217 80.9538 58.5658C84.2363 59.0999 87.4168 58.9314 90.3436 58.3766V27.3035H90.341Z" fill="#D6D8D6"/>
<path d="M97.2981 34.5058L49.7371 6.05647L2.70185 34.1791L0 29.7405L49.7398 0L100 30.0646L97.2981 34.5058Z" fill="#999999"/>
<path d="M52.1958 35.5171H16.6846V60.9408H52.1958V35.5171Z" fill="white"/>
<path d="M16.6846 48.229H52.1984" stroke="#999999" stroke-width="5" stroke-miterlimit="10"/>
<path d="M34.4414 35.5171V60.9408" stroke="#999999" stroke-width="5" stroke-miterlimit="10"/>
</svg>
