<svg width="24" height="24" viewBox="0 0 24 24" fill="none" xmlns="http://www.w3.org/2000/svg">
<g clip-path="url(#clip0)">
<path d="M6.43242 14.0855L5.73625 16.6845L3.19176 16.7383C2.43133 15.3279 2 13.7141 2 11.9993C2 10.3411 2.40328 8.7773 3.11812 7.40039H3.11867L5.38398 7.8157L6.37633 10.0674C6.16863 10.6729 6.05543 11.3229 6.05543 11.9993C6.05551 12.7334 6.18848 13.4367 6.43242 14.0855Z" fill="#FBBB00"/>
<path d="M21.8253 10.1328C21.9401 10.7377 22 11.3625 22 12.0009C22 12.7169 21.9247 13.4152 21.7813 14.0889C21.2945 16.3812 20.0225 18.3828 18.2605 19.7993L18.2599 19.7987L15.4066 19.6532L15.0028 17.1323C16.172 16.4466 17.0858 15.3735 17.5671 14.0889H12.2198V10.1328H17.6451H21.8253Z" fill="#518EF8"/>
<path d="M18.2599 19.7975L18.2604 19.798C16.5467 21.1755 14.3698 21.9996 12 21.9996C8.19177 21.9996 4.8808 19.8711 3.19177 16.7387L6.43244 14.0859C7.27693 16.3398 9.45111 17.9442 12 17.9442C13.0956 17.9442 14.122 17.648 15.0027 17.131L18.2599 19.7975Z" fill="#28B446"/>
<path d="M18.383 4.30219L15.1434 6.95437C14.2319 6.38461 13.1544 6.05547 12 6.05547C9.39344 6.05547 7.17859 7.73348 6.37641 10.0681L3.11871 7.40109H3.11816C4.78246 4.1923 8.1352 2 12 2C14.4264 2 16.6511 2.8643 18.383 4.30219Z" fill="#F14336"/>
</g>
<defs>
<clipPath id="clip0">
<rect width="20" height="20" fill="white" transform="translate(2 2)"/>
</clipPath>
</defs>
</svg>
