<svg width="567" height="242" viewBox="0 0 567 242" fill="none" xmlns="http://www.w3.org/2000/svg">
<path d="M221.513 92.938H254.366C267.664 92.938 276.656 97.2431 276.656 110.243C276.656 117.087 273.259 121.877 267.171 124.815C275.662 127.252 279.985 133.807 279.985 142.511C279.985 156.683 267.961 162.746 255.36 162.746H221.513V92.938ZM236.797 121.189H252.345C257.72 121.189 261.686 118.752 261.686 112.884C261.686 106.235 256.591 104.868 251.131 104.868H236.797V121.189ZM236.797 150.815H253.22C259.283 150.815 264.564 148.862 264.564 141.628C264.564 134.393 260.064 131.659 253.525 131.659H236.797V150.815Z" fill="#FFB300"/>
<path d="M290.293 92.938H342.507V105.845H305.662V120.798H339.492V132.729H305.662V149.839H343.305V162.746H290.293V92.938Z" fill="#FFB300"/>
<path d="M353.664 92.938H405.869V105.845H369.017V120.798H402.846V132.729H369.017V149.839H406.625V162.746H353.639L353.664 92.938Z" fill="#FFB300"/>
<path d="M485.51 66.1558C494.672 52.2894 508.437 44.6387 524.146 44.6387C534.839 44.6387 543.367 47.8286 549.73 54.2085C555.748 60.3732 558.759 68.2985 558.765 77.9843C558.765 87.3418 555.368 95.4879 548.575 102.423C541.216 109.844 531.927 113.555 520.707 113.555C504.669 113.555 492.156 106.691 483.166 92.9631L485.51 66.1558ZM492.583 75.9039C500.135 91.0865 510.738 98.6778 524.392 98.6778C530.271 98.8248 535.992 96.7683 540.432 92.9122C542.549 91.1412 544.242 88.9184 545.387 86.4071C546.531 83.8958 547.099 81.1598 547.047 78.4004C547.123 75.6217 546.526 72.8658 545.308 70.3672C544.09 67.8687 542.286 65.7014 540.05 64.05C535.38 60.4496 529.436 58.6466 522.218 58.641C509 58.6636 499.124 64.4292 492.592 75.9379L492.583 75.9039Z" fill="#FFB300"/>
<path d="M487.522 91.9956C478.36 105.862 464.205 113.589 448.513 113.589C437.814 113.589 429.286 110.399 422.929 104.019C416.911 97.849 413.899 89.9237 413.894 80.2435C413.894 70.886 417.29 62.74 424.083 55.8053C431.443 48.3952 440.732 44.6873 451.952 44.6816C467.984 44.6816 480.497 51.5455 489.492 65.2732L487.522 91.9956ZM480.067 82.2815C472.521 67.0989 461.91 59.5076 448.233 59.5076C442.356 59.3651 436.638 61.4245 432.201 65.2817C430.085 67.054 428.393 69.2787 427.251 71.7918C426.11 74.3049 425.546 77.0422 425.603 79.802C425.526 82.5809 426.122 85.3373 427.34 87.8361C428.559 90.3349 430.363 92.5019 432.6 94.1524C437.27 97.7641 443.214 99.5671 450.432 99.5614C463.684 99.5501 473.563 93.7901 480.067 82.2815Z" fill="#FFB300"/>
<path d="M469.368 118.667C469.368 118.667 483.285 129.009 502.043 118.667L511.672 120.45C511.672 120.45 505.057 129.723 484.669 129.723C470.361 129.723 463.509 122.828 460.987 121.639L469.368 118.667Z" fill="#FFB300"/>
<path d="M63.0978 140.744C63.0978 149.745 60.6608 164.41 39.8314 164.41C28.1982 164.41 16.8538 158.05 16.8538 142.799V136.737H30.7372V139.87C30.7372 146.612 32.4354 151.503 39.6361 151.503C47.7539 151.503 47.7539 144.948 47.7539 140.065V92.938H63.0978V140.744Z" fill="#171D2A"/>
<path d="M107.881 91.2734C129.483 91.2734 142.195 107.407 142.195 128.135C142.195 148.276 129.458 164.41 107.881 164.41C86.3046 164.41 73.5591 148.276 73.5591 128.135C73.5591 107.407 86.2707 91.2734 107.881 91.2734ZM107.881 151.503C121.663 151.503 126.842 139.768 126.842 128.135C126.842 115.915 121.663 104.18 107.881 104.18C94.0997 104.18 88.9115 115.915 88.9115 128.135C88.9115 139.768 94.0912 151.503 107.881 151.503Z" fill="#171D2A"/>
<path d="M152.656 92.938H185.51C198.799 92.938 207.799 97.2431 207.799 110.243C207.799 117.087 204.403 121.877 198.315 124.815C206.806 127.252 211.12 133.807 211.12 142.511C211.12 156.683 199.096 162.746 186.495 162.746H152.656V92.938ZM168.017 121.189H183.556C188.94 121.189 192.948 118.752 192.948 112.884C192.948 106.235 187.853 104.868 182.385 104.868H168.017V121.189ZM168.017 150.815H184.44C190.502 150.815 195.784 148.862 195.784 141.628C195.784 134.393 191.284 131.659 184.745 131.659H168.017V150.815Z" fill="#171D2A"/>
<path d="M262.713 218.661H252.931L245.34 188.177H245.212L237.748 218.661H227.78L215.892 173.878H225.759L232.849 204.362H232.976L240.754 173.878H249.976L257.618 204.736H257.746L265.082 173.878H274.754L262.713 218.661Z" fill="#171D2A"/>
<path d="M299.345 172.808C313.203 172.808 321.355 183.159 321.355 196.456C321.355 209.372 313.203 219.722 299.345 219.722C285.487 219.722 277.327 209.372 277.327 196.456C277.327 183.159 285.479 172.808 299.345 172.808ZM299.345 211.443C308.184 211.443 311.513 203.92 311.513 196.456C311.513 188.61 308.184 181.087 299.345 181.087C290.505 181.087 287.177 188.61 287.177 196.456C287.177 203.92 290.497 211.418 299.345 211.418V211.443Z" fill="#171D2A"/>
<path d="M328.071 173.878H352.212C360.245 173.878 365.323 179.457 365.323 186.233C365.323 191.498 363.192 195.455 358.241 197.458V197.586C363.064 198.834 364.448 203.53 364.763 208.056C364.949 210.883 364.89 216.148 366.639 218.661H356.798C355.6 215.834 355.728 211.512 355.227 207.937C354.539 203.233 352.679 201.144 347.763 201.144H337.913V218.644H328.071V173.878ZM337.913 194.13H348.705C353.095 194.13 355.498 192.253 355.498 187.736C355.498 183.405 353.121 181.529 348.705 181.529H337.913V194.13Z" fill="#171D2A"/>
<path d="M373.356 173.878H383.197V192.44L400.681 173.878H412.994L395.493 191.565L414.683 218.661H402.328L388.844 198.528L383.197 204.235V218.67H373.356V173.878Z" fill="#171D2A"/>
<path d="M486.274 106.668C486.274 106.668 481.281 113.326 475.694 114.311C475.694 114.311 486.733 120.255 496.922 114.073C496.965 114.039 489.841 111.925 486.274 106.668Z" fill="#171D2A"/>
<path d="M463.305 129.723C470.374 133.555 478.288 135.563 486.329 135.563C494.371 135.563 502.285 133.555 509.354 129.723C509.354 129.723 499.971 153.091 485.917 157.09C485.917 157.073 468.12 149.474 463.305 129.723Z" fill="#171D2A"/>
<path d="M466.421 40.4188C474.622 41.8364 482.248 45.5626 488.405 51.1604C488.405 51.1604 498.255 41.6756 509.006 40.4188C509.006 40.4188 490.69 19.7593 466.421 40.4188Z" fill="#171D2A"/>
<path d="M475.845 23.3375L474.329 24.1045L480.335 35.9684L481.851 35.2014L475.845 23.3375Z" fill="#171D2A"/>
<path d="M472.909 25.6524C472.531 25.1916 472.298 24.629 472.239 24.0359C472.181 23.4427 472.3 22.8456 472.581 22.3199C472.861 21.7942 473.292 21.3636 473.818 21.0825C474.343 20.8013 474.94 20.6823 475.533 20.7404C476.126 20.7986 476.689 21.0313 477.15 21.4091C477.611 21.7869 477.95 22.2929 478.123 22.8631C478.297 23.4333 478.297 24.0421 478.125 24.6127C477.952 25.1832 477.615 25.6898 477.154 26.0684C476.536 26.5746 475.741 26.8151 474.946 26.7371C474.15 26.6591 473.418 26.2691 472.909 25.6524Z" fill="#171D2A"/>
<path d="M500.986 22.5305L495.789 34.77L497.352 35.4339L502.55 23.1943L500.986 22.5305Z" fill="#171D2A"/>
<path d="M498.918 22.4258C499.025 21.8389 499.305 21.2972 499.72 20.8693C500.136 20.4413 500.669 20.1463 501.253 20.0216C501.836 19.897 502.444 19.9482 502.998 20.1689C503.552 20.3897 504.029 20.7699 504.367 21.2615C504.705 21.7531 504.889 22.334 504.897 22.9305C504.905 23.5271 504.735 24.1125 504.41 24.6127C504.085 25.1129 503.618 25.5053 503.07 25.7403C502.522 25.9753 501.916 26.0423 501.329 25.9327C500.941 25.8612 500.57 25.7137 500.238 25.4987C499.906 25.2837 499.62 25.0053 499.396 24.6795C499.172 24.3538 499.014 23.987 498.932 23.6003C498.85 23.2136 498.845 22.8144 498.918 22.4258Z" fill="#171D2A"/>
<path d="M464.85 219.722C465.924 219.726 466.966 219.358 467.799 218.682C468.633 218.005 469.207 217.061 469.424 216.009C469.64 214.958 469.487 213.864 468.989 212.912C468.492 211.961 467.68 211.211 466.693 210.789L466.447 210.671C465.321 210.157 464.037 210.112 462.878 210.545C461.718 210.978 460.779 211.854 460.265 212.98C459.752 214.106 459.706 215.39 460.14 216.549C460.573 217.709 461.449 218.648 462.575 219.162L463.033 219.357C463.608 219.601 464.226 219.725 464.85 219.722Z" fill="#171D2A"/>
<path d="M449.439 210.025C449.252 209.83 449.065 209.626 448.887 209.423C448.448 208.972 448.106 208.437 447.88 207.85C447.654 207.264 447.548 206.638 447.571 206.009C447.593 205.381 447.742 204.764 448.008 204.195C448.275 203.625 448.654 203.116 449.123 202.697C449.592 202.278 450.14 201.959 450.736 201.757C451.331 201.556 451.962 201.477 452.588 201.525C453.215 201.574 453.826 201.748 454.383 202.039C454.941 202.329 455.434 202.729 455.833 203.215L456.24 203.665C456.667 204.11 457.002 204.634 457.225 205.209C457.448 205.784 457.554 206.397 457.538 207.013C457.522 207.629 457.383 208.236 457.131 208.798C456.878 209.36 456.516 209.866 456.067 210.288C455.617 210.709 455.087 211.037 454.51 211.252C453.932 211.467 453.318 211.565 452.702 211.54C452.086 211.516 451.481 211.37 450.922 211.109C450.364 210.849 449.862 210.481 449.447 210.025H449.439ZM448.071 197.637C447.476 197.488 446.915 197.223 446.422 196.857C445.929 196.491 445.512 196.032 445.197 195.505C444.881 194.978 444.673 194.394 444.583 193.787C444.494 193.179 444.525 192.56 444.675 191.964C444.751 191.676 444.828 191.395 444.913 191.115C445.262 189.931 446.067 188.933 447.152 188.342C448.236 187.752 449.511 187.616 450.695 187.965C451.88 188.314 452.877 189.119 453.468 190.204C454.059 191.288 454.195 192.563 453.846 193.747C453.795 193.917 453.752 194.096 453.701 194.265C453.448 195.27 452.867 196.161 452.05 196.797C451.234 197.434 450.228 197.78 449.192 197.781C448.814 197.776 448.438 197.727 448.071 197.637ZM454.236 184.05C453.948 183.511 453.768 182.921 453.708 182.312C453.648 181.704 453.708 181.089 453.886 180.504C454.063 179.919 454.354 179.374 454.742 178.902C455.13 178.429 455.607 178.038 456.147 177.75C456.385 177.614 456.631 177.486 456.886 177.359C457.981 176.865 459.226 176.813 460.359 177.214C461.492 177.616 462.427 178.439 462.967 179.513C463.507 180.587 463.612 181.829 463.259 182.978C462.905 184.127 462.122 185.095 461.072 185.681L460.545 185.952C459.871 186.322 459.115 186.515 458.346 186.513C457.501 186.512 456.673 186.281 455.949 185.846C455.225 185.411 454.633 184.787 454.236 184.042V184.05ZM468.238 178.955C467.979 178.402 467.831 177.803 467.803 177.192C467.776 176.581 467.868 175.971 468.077 175.396C468.285 174.821 468.604 174.293 469.017 173.841C469.429 173.39 469.926 173.024 470.48 172.765L470.99 172.519C471.535 172.24 472.13 172.072 472.74 172.023C473.351 171.974 473.965 172.046 474.548 172.234C475.13 172.423 475.67 172.724 476.136 173.121C476.603 173.518 476.986 174.003 477.265 174.548C477.544 175.094 477.712 175.689 477.761 176.299C477.81 176.909 477.738 177.524 477.55 178.106C477.361 178.689 477.06 179.229 476.663 179.695C476.266 180.161 475.781 180.545 475.235 180.824L474.454 181.197C473.839 181.491 473.166 181.642 472.484 181.639C471.592 181.644 470.717 181.392 469.964 180.913C469.211 180.434 468.612 179.749 468.238 178.938V178.955Z" fill="#171D2A"/>
<path d="M483.447 171.67C484.252 171.671 485.045 171.462 485.746 171.065C486.447 170.667 487.033 170.095 487.446 169.403C487.641 169.08 487.735 168.893 487.735 168.893C488.265 167.812 488.357 166.567 487.99 165.42C487.623 164.273 486.827 163.312 485.768 162.739C484.708 162.166 483.468 162.025 482.308 162.346C481.147 162.667 480.155 163.425 479.541 164.461L479.456 164.614C479.032 165.32 478.804 166.127 478.794 166.95C478.784 167.774 478.992 168.586 479.398 169.303C479.803 170.02 480.392 170.617 481.103 171.033C481.814 171.448 482.623 171.668 483.447 171.67Z" fill="#171D2A"/>
</svg>
