<svg width="543" height="201" viewBox="0 0 543 201" fill="none" xmlns="http://www.w3.org/2000/svg">
<path d="M47.1086 121.364C47.1086 130.413 44.6655 145.02 23.841 145.02C12.2071 145.02 0.870605 138.66 0.870605 123.42V117.357H14.7666V120.485C14.7666 127.233 16.4212 132.119 23.66 132.119C31.7649 132.119 31.7649 125.566 31.7649 120.679V73.5752H47.1086V121.364Z" fill="white"/>
<path d="M91.9122 71.9077C113.512 71.9077 126.219 88.04 126.219 108.761C126.219 128.888 113.512 144.955 91.9122 144.955C70.312 144.955 57.6053 128.823 57.6053 108.761C57.5665 88.04 70.2733 71.9077 91.9122 71.9077ZM91.9122 132.119C105.692 132.119 110.875 120.395 110.875 108.761C110.875 96.5456 105.705 84.8084 91.9122 84.8084C78.1196 84.8084 72.9491 96.5456 72.9491 108.761C72.9103 120.395 78.0938 132.119 91.9122 132.119Z" fill="white"/>
<path d="M136.638 73.5752H169.471C182.759 73.5752 191.743 77.8668 191.743 90.8708C191.743 97.7089 188.331 102.505 182.268 105.439C190.774 107.882 195.065 114.487 195.065 123.122C195.065 137.342 183.044 143.352 170.44 143.352H136.638V73.5752ZM151.981 101.82H167.493C172.87 101.82 176.878 99.3765 176.878 93.5078C176.878 86.8636 171.798 85.4934 166.33 85.4934H151.981V101.82ZM151.981 131.434H168.398C174.46 131.434 179.734 129.482 179.734 122.243C179.734 115.005 175.249 112.277 168.695 112.277H151.981V131.434Z" fill="white"/>
<path d="M205.445 73.5752H238.278C251.58 73.5752 260.564 77.8668 260.564 90.8708C260.564 97.7089 257.151 102.505 251.089 105.439C259.594 107.882 263.886 114.487 263.886 123.122C263.886 137.342 251.864 143.352 239.261 143.352H205.445V73.5752ZM220.789 101.82H236.301C241.678 101.82 245.685 99.3765 245.685 93.5078C245.685 86.8636 240.605 85.4934 235.124 85.4934H220.789V101.82ZM220.789 131.434H237.206C243.268 131.434 248.542 129.482 248.542 122.243C248.542 115.005 244.044 112.277 237.503 112.277H220.789V131.434Z" fill="#FFB300"/>
<path d="M274.253 73.5752H326.437V86.5017H289.597V101.445H323.412V113.363H289.597V130.465H327.174V143.391H274.175L274.253 73.5752Z" fill="#FFB300"/>
<path d="M337.58 73.5752H389.777V86.5017H352.924V101.445H386.739V113.363H352.924V130.465H390.514V143.391H337.515L337.58 73.5752Z" fill="#FFB300"/>
<path d="M246.655 199.247H236.882L229.295 168.779H229.165L221.707 199.247H211.74L199.887 154.443H209.724L216.821 184.911H216.937L224.693 154.443H233.909L241.562 185.299H241.678L249.046 154.443H258.664L246.655 199.247Z" fill="white"/>
<path d="M283.224 153.422C297.081 153.422 305.199 163.764 305.199 177.052C305.199 189.978 297.042 200.32 283.224 200.32C269.406 200.32 261.249 189.978 261.249 177.052C261.249 163.764 269.418 153.422 283.224 153.422ZM283.224 192.047C292.066 192.047 295.388 184.511 295.388 177.052C295.388 169.219 292.066 161.695 283.224 161.695C274.382 161.695 271.06 169.219 271.06 177.052C271.112 184.511 274.434 192.047 283.224 192.047Z" fill="white"/>
<path d="M311.998 154.443H336.132C344.159 154.443 349.239 160.028 349.239 166.801C349.239 172.062 347.106 176.018 342.156 178.021V178.138C346.977 179.43 348.36 184.097 348.619 188.621C348.813 191.439 348.748 196.7 350.506 199.208H340.656C339.467 196.39 339.596 192.059 339.092 188.492C338.394 183.786 336.584 181.718 331.633 181.718H321.783V199.208H311.946L311.998 154.443ZM321.835 174.699H332.616C337.011 174.699 339.389 172.812 339.389 168.301C339.389 163.789 337.011 162.096 332.616 162.096H321.835V174.699Z" fill="white"/>
<path d="M357.254 154.443H367.104V173.006L384.593 154.443H396.887L379.397 172.166L398.58 199.311H386.222L372.753 179.185L367.104 184.898V199.311H357.254V154.443Z" fill="white"/>
<path d="M469.365 46.7917C478.53 32.9345 492.31 25.2949 507.989 25.2949C518.684 25.2949 527.211 28.4791 533.571 34.8476C539.603 41.0264 542.62 48.9633 542.62 58.6582C542.656 63.2055 541.773 67.7134 540.025 71.9115C538.277 76.1096 535.699 79.9115 532.446 83.0892C525.061 90.509 515.776 94.2189 504.59 94.2189C488.561 94.2189 476.065 87.355 467.103 73.627L469.365 46.7917ZM476.526 56.577C484.076 71.7527 494.675 79.3405 508.326 79.3405C514.202 79.491 519.92 77.434 524.354 73.5753C526.473 71.8079 528.168 69.587 529.314 67.0766C530.459 64.5663 531.026 61.8307 530.973 59.0718C531.047 56.294 530.451 53.5391 529.233 51.0412C528.016 48.5433 526.214 46.376 523.98 44.7234C519.309 41.1299 513.371 39.3288 506.167 39.3202C492.887 39.3202 482.985 45.0724 476.462 56.577H476.526Z" fill="#FFB300"/>
<path d="M471.395 72.6317C462.23 86.4889 448.127 94.2189 432.395 94.2189C421.71 94.2189 413.187 91.0304 406.827 84.6533C400.794 78.4745 397.778 70.5376 397.778 60.8428C397.742 56.2954 398.624 51.7875 400.373 47.5894C402.121 43.3913 404.698 39.5894 407.951 36.4117C415.328 28.9919 424.614 25.2863 435.808 25.2949C451.837 25.2949 464.332 32.1546 473.295 45.8739L471.395 72.6317ZM463.936 62.9239C456.404 47.7482 445.805 40.1604 432.137 40.1604C426.261 40.0125 420.543 42.0692 416.108 45.9256C413.989 47.693 412.294 49.9139 411.149 52.4243C410.003 54.9346 409.436 57.6703 409.49 60.4291C409.415 63.207 410.012 65.9618 411.229 68.4597C412.447 70.9577 414.249 73.1249 416.483 74.7775C421.154 78.3711 427.091 80.1722 434.296 80.1808C447.532 80.1808 457.412 74.4285 463.936 62.9239Z" fill="#FFB300"/>
<path d="M470.141 87.3037C470.141 87.3037 465.151 93.9609 459.567 94.9045C459.567 94.9045 470.619 100.851 480.831 94.6718C480.831 94.6718 473.683 92.5519 470.141 87.3037Z" fill="white"/>
<path d="M453.246 99.2861C453.246 99.2861 467.155 109.627 485.911 99.2861L495.541 101.07C495.541 101.07 488.923 110.338 468.538 110.338C454.241 110.338 447.39 103.448 444.87 102.259L453.246 99.2861Z" fill="#FFB300"/>
<path d="M447.183 110.338C454.249 114.17 462.161 116.177 470.199 116.177C478.237 116.177 486.148 114.17 493.214 110.338C493.214 110.338 483.843 133.761 469.792 137.703C469.792 137.703 451.992 130.09 447.183 110.338Z" fill="white"/>
<path d="M450.299 21.068C458.495 22.4882 466.118 26.2143 472.274 31.8099C472.274 31.8099 482.124 22.3348 492.866 21.068C492.866 21.068 474.536 0.424404 450.299 21.068Z" fill="white"/>
<path d="M464.97 16.2591L458.972 4.39258" stroke="white" stroke-width="2.5853" stroke-miterlimit="10"/>
<path d="M456.788 6.30576C456.41 5.8456 456.176 5.28363 456.117 4.69089C456.059 4.09815 456.177 3.50127 456.457 2.97571C456.737 2.45015 457.167 2.01951 457.692 1.73825C458.217 1.45699 458.814 1.33774 459.407 1.39558C460 1.45342 460.562 1.68575 461.023 2.06319C461.484 2.44063 461.822 2.94624 461.996 3.51608C462.169 4.08591 462.17 4.69439 461.998 5.26457C461.825 5.83476 461.488 6.34104 461.028 6.71941C460.722 6.9707 460.37 7.15934 459.992 7.27455C459.613 7.38976 459.216 7.42928 458.822 7.39086C458.428 7.35245 458.046 7.23687 457.697 7.05068C457.348 6.8645 457.039 6.61136 456.788 6.30576Z" fill="white"/>
<path d="M480.456 15.7555L485.653 3.51416" stroke="white" stroke-width="2.5853" stroke-miterlimit="10"/>
<path d="M482.783 3.08705C482.89 2.50085 483.168 1.95957 483.583 1.53171C483.998 1.10386 484.53 0.808659 485.113 0.683451C485.696 0.558244 486.302 0.608657 486.856 0.828326C487.41 1.048 487.886 1.42704 488.225 1.9175C488.563 2.40796 488.748 2.98778 488.757 3.58361C488.766 4.17943 488.598 4.76449 488.274 5.26472C487.95 5.76496 487.485 6.15791 486.938 6.39384C486.391 6.62977 485.786 6.69806 485.2 6.59011C484.415 6.44555 483.72 5.99547 483.267 5.33867C482.814 4.68187 482.64 3.87206 482.783 3.08705Z" fill="white"/>
<path d="M448.683 200.32C449.755 200.321 450.795 199.952 451.627 199.274C452.459 198.597 453.031 197.653 453.247 196.603C453.463 195.552 453.309 194.459 452.812 193.509C452.315 192.559 451.505 191.809 450.518 191.387L450.273 191.271C449.717 191.016 449.116 190.874 448.505 190.851C447.894 190.829 447.285 190.927 446.711 191.14C446.138 191.353 445.613 191.677 445.165 192.093C444.717 192.509 444.355 193.01 444.1 193.566C443.846 194.121 443.703 194.722 443.681 195.333C443.658 195.944 443.756 196.554 443.969 197.127C444.182 197.7 444.506 198.226 444.922 198.674C445.339 199.122 445.839 199.483 446.395 199.738L446.847 199.945C447.427 200.195 448.052 200.323 448.683 200.32Z" fill="white"/>
<path d="M433.313 190.638L432.77 190.03C432.363 189.574 432.049 189.043 431.847 188.466C431.645 187.889 431.559 187.278 431.593 186.667C431.627 186.057 431.781 185.459 432.047 184.908C432.312 184.358 432.683 183.864 433.139 183.457C433.594 183.05 434.126 182.736 434.703 182.534C435.28 182.332 435.891 182.246 436.502 182.28C437.112 182.314 437.71 182.468 438.26 182.733C438.811 182.999 439.304 183.37 439.712 183.825L440.125 184.278C440.543 184.725 440.868 185.25 441.083 185.823C441.298 186.396 441.397 187.006 441.376 187.618C441.355 188.229 441.214 188.831 440.961 189.388C440.707 189.945 440.347 190.446 439.899 190.864C439.452 191.281 438.927 191.607 438.354 191.821C437.781 192.036 437.171 192.136 436.559 192.115C435.948 192.094 435.346 191.952 434.789 191.699C434.232 191.446 433.731 191.085 433.313 190.638ZM431.956 178.241C431.363 178.09 430.806 177.824 430.317 177.458C429.827 177.092 429.414 176.633 429.102 176.107C428.79 175.581 428.585 174.999 428.498 174.393C428.411 173.788 428.444 173.172 428.595 172.579L428.828 171.726C429.21 170.588 430.017 169.642 431.08 169.085C432.143 168.528 433.38 168.403 434.533 168.737C435.686 169.071 436.665 169.837 437.267 170.876C437.868 171.915 438.045 173.145 437.76 174.311C437.76 174.48 437.669 174.66 437.618 174.829C437.364 175.833 436.783 176.725 435.966 177.361C435.149 177.998 434.142 178.344 433.106 178.345C432.719 178.356 432.333 178.317 431.956 178.228V178.241ZM438.122 164.668C437.827 164.127 437.643 163.533 437.579 162.921C437.515 162.308 437.574 161.689 437.75 161.099C437.927 160.509 438.219 159.96 438.608 159.483C438.998 159.006 439.479 158.612 440.022 158.321L440.759 157.934C441.305 157.659 441.901 157.494 442.511 157.449C443.121 157.404 443.734 157.48 444.315 157.672C444.896 157.864 445.434 158.169 445.897 158.568C446.36 158.968 446.74 159.455 447.015 160.002C447.29 160.548 447.455 161.144 447.5 161.754C447.545 162.364 447.469 162.977 447.277 163.558C447.085 164.139 446.78 164.677 446.38 165.14C445.981 165.603 445.494 165.983 444.947 166.258L444.43 166.53C443.891 166.82 443.3 167.001 442.692 167.062C442.083 167.124 441.468 167.065 440.882 166.888C440.296 166.712 439.75 166.421 439.277 166.034C438.803 165.646 438.411 165.169 438.122 164.63V164.668ZM452.108 159.614C451.588 158.494 451.532 157.214 451.954 156.054C452.375 154.893 453.24 153.947 454.358 153.422L454.862 153.177C455.407 152.9 456.001 152.733 456.61 152.686C457.219 152.639 457.832 152.712 458.413 152.902C458.994 153.092 459.532 153.394 459.996 153.792C460.46 154.189 460.841 154.674 461.118 155.219C461.395 155.764 461.561 156.358 461.609 156.967C461.656 157.577 461.582 158.189 461.393 158.77C461.203 159.351 460.901 159.889 460.503 160.353C460.106 160.817 459.621 161.199 459.076 161.475L458.313 161.85C457.693 162.138 457.019 162.288 456.335 162.29C455.449 162.291 454.581 162.04 453.833 161.566C453.084 161.092 452.486 160.415 452.108 159.614Z" fill="white"/>
<path d="M467.31 152.272C468.117 152.274 468.91 152.067 469.613 151.671C470.315 151.274 470.902 150.702 471.317 150.01C471.511 149.686 471.601 149.505 471.601 149.505C472.173 148.422 472.295 147.156 471.939 145.983C471.584 144.811 470.78 143.826 469.703 143.242C468.626 142.658 467.361 142.523 466.185 142.865C465.008 143.208 464.014 144.001 463.419 145.072L463.328 145.227C462.902 145.931 462.67 146.737 462.658 147.561C462.645 148.385 462.852 149.197 463.258 149.914C463.663 150.632 464.252 151.228 464.964 151.642C465.676 152.057 466.486 152.274 467.31 152.272Z" fill="white"/>
</svg>
